<svg width="18" height="18" viewBox="0 0 14 14" fill="none" xmlns="http://www.w3.org/2000/svg"> <path d="M4.66666 11.0002C3.93332 11.0002 3.33999 11.6002 3.33999 12.3335C3.33999 13.0668 3.93332 13.6668 4.66666 13.6668C5.39999 13.6668 5.99999 13.0668 5.99999 12.3335C5.99999 11.6002 5.39999 11.0002 4.66666 11.0002ZM0.666656 0.333496V1.66683H1.99999L4.39999 6.72683L3.49999 8.36016C3.39332 8.54683 3.33332 8.76683 3.33332 9.00016C3.33332 9.7335 3.93332 10.3335 4.66666 10.3335H12.6667V9.00016H4.94666C4.85332 9.00016 4.77999 8.92683 4.77999 8.8335L4.79999 8.7535L5.39999 7.66683H10.3667C10.8667 7.66683 11.3067 7.3935 11.5333 6.98016L13.92 2.6535C13.9733 2.56016 14 2.44683 14 2.3335C14 1.96683 13.7 1.66683 13.3333 1.66683H3.47332L2.84666 0.333496H0.666656ZM11.3333 11.0002C10.6 11.0002 10.0067 11.6002 10.0067 12.3335C10.0067 13.0668 10.6 13.6668 11.3333 13.6668C12.0667 13.6668 12.6667 13.0668 12.6667 12.3335C12.6667 11.6002 12.0667 11.0002 11.3333 11.0002Z" fill="#2563EB"></path> </svg>